<svg width="199" height="300" viewBox="0 0 199 300" fill="none" xmlns="http://www.w3.org/2000/svg">
<g id="File">
<g id="Vector 6" filter="url(#filter0_d)">
<path d="M132 65.5V24.5L178 65.5H132Z" stroke="black" shape-rendering="crispEdges"/>
</g>
<g id="Back" filter="url(#filter1_d)">
<path d="M10 263V38C10 30.268 16.268 24 24 24H132L178 65.5V263C178 270.732 171.732 277 164 277H24C16.268 277 10 270.732 10 263Z" fill="#F7F7F7"/>
<path d="M132 24H24C16.268 24 10 30.268 10 38V263C10 270.732 16.268 277 24 277H164C171.732 277 178 270.732 178 263V65.5M132 24L178 65.5M132 24V51.5C132 59.232 138.268 65.5 146 65.5H178" stroke="black"/>
</g>
<g id="Texts">
<path id="Vector 7" d="M32 86L34.8934 82.64C36.0902 81.2501 38.2431 81.2501 39.44 82.64L40.06 83.36C41.2569 84.7499 43.4098 84.7499 44.6066 83.36L45.2267 82.64C46.4236 81.2501 48.5764 81.2501 49.7733 82.64L50.3934 83.36C51.5902 84.7499 53.7431 84.7499 54.94 83.36L55.56 82.64C56.7569 81.2501 58.9098 81.2501 60.1066 82.64L60.7267 83.36C61.9236 84.7499 64.0764 84.7499 65.2733 83.36L65.8934 82.64C67.0902 81.2501 69.2431 81.2501 70.44 82.64L71.06 83.36C72.2569 84.7499 74.4098 84.7499 75.6066 83.36L76.2267 82.64C77.4236 81.2501 79.5764 81.2501 80.7733 82.64L81.3934 83.36C82.5902 84.7499 84.7431 84.7499 85.94 83.36L86.56 82.64C87.7569 81.2501 89.9098 81.2501 91.1066 82.64L91.7267 83.36C92.9236 84.7499 95.0764 84.7499 96.2733 83.36L96.8934 82.64C98.0902 81.2501 100.243 81.2501 101.44 82.64L102.06 83.36C103.257 84.7499 105.41 84.7499 106.607 83.36L107.227 82.64C108.424 81.2501 110.576 81.2501 111.773 82.64L112.393 83.36C113.59 84.7499 115.743 84.7499 116.94 83.36L117.56 82.64C118.757 81.2501 120.91 81.2501 122.107 82.64L122.727 83.36C123.924 84.7499 126.076 84.7499 127.273 83.36L127.893 82.64C129.09 81.2501 131.243 81.2501 132.44 82.64L133.06 83.36C134.257 84.7499 136.41 84.7499 137.607 83.36L138.227 82.64C139.424 81.2501 141.576 81.2501 142.773 82.64L143.393 83.36C144.59 84.7499 146.743 84.7499 147.94 83.36L148.56 82.64C149.757 81.2501 151.91 81.2501 153.107 82.64L156 86" stroke="black"/>
<path id="Vector 8" d="M32 102L34.8934 98.64C36.0902 97.2501 38.2431 97.2501 39.44 98.64L40.06 99.36C41.2569 100.75 43.4098 100.75 44.6066 99.36L45.2267 98.64C46.4236 97.2501 48.5764 97.2501 49.7733 98.64L50.3934 99.36C51.5902 100.75 53.7431 100.75 54.94 99.36L55.56 98.64C56.7569 97.2501 58.9098 97.2501 60.1066 98.64L60.7267 99.36C61.9236 100.75 64.0764 100.75 65.2733 99.36L65.8934 98.64C67.0902 97.2501 69.2431 97.2501 70.44 98.64L71.06 99.36C72.2569 100.75 74.4098 100.75 75.6066 99.36L76.2267 98.64C77.4236 97.2501 79.5764 97.2501 80.7733 98.64L81.3934 99.36C82.5902 100.75 84.7431 100.75 85.94 99.36L86.56 98.64C87.7569 97.2501 89.9098 97.2501 91.1066 98.64L91.7267 99.36C92.9236 100.75 95.0764 100.75 96.2733 99.36L96.8934 98.64C98.0902 97.2501 100.243 97.2501 101.44 98.64L102.06 99.36C103.257 100.75 105.41 100.75 106.607 99.36L107.227 98.64C108.424 97.2501 110.576 97.2501 111.773 98.64L112.393 99.36C113.59 100.75 115.743 100.75 116.94 99.36L117.56 98.64C118.757 97.2501 120.91 97.2501 122.107 98.64L122.727 99.36C123.924 100.75 126.076 100.75 127.273 99.36L127.893 98.64C129.09 97.2501 131.243 97.2501 132.44 98.64L133.06 99.36C134.257 100.75 136.41 100.75 137.607 99.36L138.227 98.64C139.424 97.2501 141.576 97.2501 142.773 98.64L143.393 99.36C144.59 100.75 146.743 100.75 147.94 99.36L148.56 98.64C149.757 97.2501 151.91 97.2501 153.107 98.64L156 102" stroke="black"/>
<path id="Vector 9" d="M32 118L34.8934 114.64C36.0902 113.25 38.2431 113.25 39.44 114.64L40.06 115.36C41.2569 116.75 43.4098 116.75 44.6066 115.36L45.2267 114.64C46.4236 113.25 48.5764 113.25 49.7733 114.64L50.3934 115.36C51.5902 116.75 53.7431 116.75 54.94 115.36L55.56 114.64C56.7569 113.25 58.9098 113.25 60.1066 114.64L60.7267 115.36C61.9236 116.75 64.0764 116.75 65.2733 115.36L65.8934 114.64C67.0902 113.25 69.2431 113.25 70.44 114.64L71.06 115.36C72.2569 116.75 74.4098 116.75 75.6066 115.36L76.2267 114.64C77.4236 113.25 79.5764 113.25 80.7733 114.64L81.3934 115.36C82.5902 116.75 84.7431 116.75 85.94 115.36L86.56 114.64C87.7569 113.25 89.9098 113.25 91.1066 114.64L91.7267 115.36C92.9236 116.75 95.0764 116.75 96.2733 115.36L96.8934 114.64C98.0902 113.25 100.243 113.25 101.44 114.64L102.06 115.36C103.257 116.75 105.41 116.75 106.607 115.36L107.227 114.64C108.424 113.25 110.576 113.25 111.773 114.64L112.393 115.36C113.59 116.75 115.743 116.75 116.94 115.36L117.56 114.64C118.757 113.25 120.91 113.25 122.107 114.64L122.727 115.36C123.924 116.75 126.076 116.75 127.273 115.36L127.893 114.64C129.09 113.25 131.243 113.25 132.44 114.64L133.06 115.36C134.257 116.75 136.41 116.75 137.607 115.36L138.227 114.64C139.424 113.25 141.576 113.25 142.773 114.64L143.393 115.36C144.59 116.75 146.743 116.75 147.94 115.36L148.56 114.64C149.757 113.25 151.91 113.25 153.107 114.64L156 118" stroke="black"/>
<path id="Vector 10" d="M32 134L34.8934 130.64C36.0902 129.25 38.2431 129.25 39.44 130.64L40.06 131.36C41.2569 132.75 43.4098 132.75 44.6066 131.36L45.2267 130.64C46.4236 129.25 48.5764 129.25 49.7733 130.64L50.3934 131.36C51.5902 132.75 53.7431 132.75 54.94 131.36L55.56 130.64C56.7569 129.25 58.9098 129.25 60.1066 130.64L60.7267 131.36C61.9236 132.75 64.0764 132.75 65.2733 131.36L65.8934 130.64C67.0902 129.25 69.2431 129.25 70.44 130.64L71.06 131.36C72.2569 132.75 74.4098 132.75 75.6066 131.36L76.2267 130.64C77.4236 129.25 79.5764 129.25 80.7733 130.64L81.3934 131.36C82.5902 132.75 84.7431 132.75 85.94 131.36L86.56 130.64C87.7569 129.25 89.9098 129.25 91.1066 130.64L91.7267 131.36C92.9236 132.75 95.0764 132.75 96.2733 131.36L96.8934 130.64C98.0902 129.25 100.243 129.25 101.44 130.64L102.06 131.36C103.257 132.75 105.41 132.75 106.607 131.36L107.227 130.64C108.424 129.25 110.576 129.25 111.773 130.64L112.393 131.36C113.59 132.75 115.743 132.75 116.94 131.36L117.56 130.64C118.757 129.25 120.91 129.25 122.107 130.64L122.727 131.36C123.924 132.75 126.076 132.75 127.273 131.36L127.893 130.64C129.09 129.25 131.243 129.25 132.44 130.64L133.06 131.36C134.257 132.75 136.41 132.75 137.607 131.36L138.227 130.64C139.424 129.25 141.576 129.25 142.773 130.64L143.393 131.36C144.59 132.75 146.743 132.75 147.94 131.36L148.56 130.64C149.757 129.25 151.91 129.25 153.107 130.64L156 134" stroke="black"/>
<path id="Vector 11" d="M32 150L34.8934 146.64C36.0902 145.25 38.2431 145.25 39.44 146.64L40.06 147.36C41.2569 148.75 43.4098 148.75 44.6066 147.36L45.2267 146.64C46.4236 145.25 48.5764 145.25 49.7733 146.64L50.3934 147.36C51.5902 148.75 53.7431 148.75 54.94 147.36L55.56 146.64C56.7569 145.25 58.9098 145.25 60.1066 146.64L60.7267 147.36C61.9236 148.75 64.0764 148.75 65.2733 147.36L65.8934 146.64C67.0902 145.25 69.2431 145.25 70.44 146.64L71.06 147.36C72.2569 148.75 74.4098 148.75 75.6066 147.36L76.2267 146.64C77.4236 145.25 79.5764 145.25 80.7733 146.64L81.3934 147.36C82.5902 148.75 84.7431 148.75 85.94 147.36L86.56 146.64C87.7569 145.25 89.9098 145.25 91.1066 146.64L91.7267 147.36C92.9236 148.75 95.0764 148.75 96.2733 147.36L96.8934 146.64C98.0902 145.25 100.243 145.25 101.44 146.64L102.06 147.36C103.257 148.75 105.41 148.75 106.607 147.36L107.227 146.64C108.424 145.25 110.576 145.25 111.773 146.64L112.393 147.36C113.59 148.75 115.743 148.75 116.94 147.36L117.56 146.64C118.757 145.25 120.91 145.25 122.107 146.64L122.727 147.36C123.924 148.75 126.076 148.75 127.273 147.36L127.893 146.64C129.09 145.25 131.243 145.25 132.44 146.64L133.06 147.36C134.257 148.75 136.41 148.75 137.607 147.36L138.227 146.64C139.424 145.25 141.576 145.25 142.773 146.64L143.393 147.36C144.59 148.75 146.743 148.75 147.94 147.36L148.56 146.64C149.757 145.25 151.91 145.25 153.107 146.64L156 150" stroke="black"/>
</g>
</g>
<defs>
<filter id="filter0_d" x="127.5" y="21.3846" width="53.8124" height="48.6154" filterUnits="userSpaceOnUse" color-interpolation-filters="sRGB">
<feFlood flood-opacity="0" result="BackgroundImageFix"/>
<feColorMatrix in="SourceAlpha" type="matrix" values="0 0 0 0 0 0 0 0 0 0 0 0 0 0 0 0 0 0 127 0" result="hardAlpha"/>
<feOffset dx="-1" dy="1"/>
<feGaussianBlur stdDeviation="1.5"/>
<feComposite in2="hardAlpha" operator="out"/>
<feColorMatrix type="matrix" values="0 0 0 0 0 0 0 0 0 0 0 0 0 0 0 0 0 0 0.58 0"/>
<feBlend mode="normal" in2="BackgroundImageFix" result="effect1_dropShadow"/>
<feBlend mode="normal" in="SourceGraphic" in2="effect1_dropShadow" result="shape"/>
</filter>
<filter id="filter1_d" x="3.5" y="17.5" width="181" height="266" filterUnits="userSpaceOnUse" color-interpolation-filters="sRGB">
<feFlood flood-opacity="0" result="BackgroundImageFix"/>
<feColorMatrix in="SourceAlpha" type="matrix" values="0 0 0 0 0 0 0 0 0 0 0 0 0 0 0 0 0 0 127 0" result="hardAlpha"/>
<feOffset/>
<feGaussianBlur stdDeviation="3"/>
<feComposite in2="hardAlpha" operator="out"/>
<feColorMatrix type="matrix" values="0 0 0 0 0 0 0 0 0 0 0 0 0 0 0 0 0 0 0.39 0"/>
<feBlend mode="normal" in2="BackgroundImageFix" result="effect1_dropShadow"/>
<feBlend mode="normal" in="SourceGraphic" in2="effect1_dropShadow" result="shape"/>
</filter>
</defs>
</svg>
