<svg width="199" height="300" viewBox="0 0 199 300" fill="none" xmlns="http://www.w3.org/2000/svg">
<g id="File">
<g id="Pencil">
<rect id="Rectangle 1" x="103" y="111" width="84.3444" height="10.0647" transform="rotate(-34.3583 103 111)" fill="#FAFF04"/>
<rect id="Rectangle 2" x="114" y="130" width="84.3507" height="8.59857" transform="rotate(-33.8466 114 130)" fill="#FAFF04"/>
<path id="Vector 15" d="M105.5 133L100.5 124L99 131L105.5 133Z" fill="#656565"/>
<path id="Vector 16" d="M118 137L106 133.5L100.5 123.5L103.5 111.5L118 137Z" fill="#BA8C63"/>
<path id="Vector 13" d="M195.5 84.5L178.5 59L172 63.5L188.5 89.5L195.5 84.5Z" fill="#FF10FF" stroke="black"/>
<path id="Vector 14" d="M114 129L108 119.5L177.5 73L184 83L114 129Z" fill="black"/>
<path id="Vector 12" d="M103.5 111L100.575 124M103.5 111L172 63.05M103.5 111L106.33 116L108.311 119.5M118.5 137.5L106 133.5M118.5 137.5L188.5 89.629M118.5 137.5L116.236 133.5L113.972 129.5M100.575 124L99 131L106 133.5M100.575 124L106 133.5M172 63.05L178.5 58.5L196 84.5L188.5 89.629M172 63.05L175.5 68.688L177.949 72.5M188.5 89.629L186.442 86.3145L184.385 83M108.311 119.5L177.949 72.5M108.311 119.5L111.5 125.133L113.972 129.5M177.949 72.5L181.902 79L184.385 83M184.385 83L113.972 129.5" stroke="black"/>
</g>
</g>
<defs>
</defs>
</svg>
